<?xml version="1.0" encoding="iso-8859-1"?>
<!-- Generator: Adobe Illustrator 19.1.0, SVG Export Plug-In . SVG Version: 6.00 Build 0)  -->
<svg version="1.1" id="Capa_1" xmlns="http://www.w3.org/2000/svg" xmlns:xlink="http://www.w3.org/1999/xlink" x="0px" y="0px"
	 viewBox="0 0 578.445 578.445" style="enable-background:new 0 0 578.445 578.445;" xml:space="preserve">
<g>
	<g>
		<path d="M269.103,305.57l-57.845,47.785c-5.03,5.03-5.03,12.575-2.515,17.605c5.03,5.03,10.06,7.545,15.09,2.515l40.24-35.21
			v95.569c0,5.03,7.545,10.06,12.575,10.06c5.03,0,12.575-5.03,12.575-10.06v-95.569l47.785,35.21
			c2.515,2.515,7.545,2.515,10.06,2.515c2.515,0,7.545-2.515,10.06-5.03c5.03-5.03,5.03-12.575,0-15.09l-65.389-50.3
			C284.193,303.055,271.618,303.055,269.103,305.57z"/>
		<path d="M460.241,189.881L460.241,189.881l-15.09-2.515c-22.635-60.36-90.539-105.629-158.444-105.629
			c-62.874,0-158.444,42.755-171.019,103.114C45.27,189.881,0,232.636,0,300.54c0,70.419,70.419,115.689,135.809,115.689h27.665
			c17.605,50.3,65.389,80.479,118.204,80.479c55.33,0,100.599-30.18,118.204-80.479h60.36c67.904,0,118.204-47.785,118.204-110.659
			C578.445,240.181,525.631,189.881,460.241,189.881z M281.678,471.559c-55.33,0-103.114-45.27-103.114-103.114
			s45.27-103.114,103.114-103.114s103.114,45.27,103.114,103.114S337.007,471.559,281.678,471.559z"/>
	</g>
</g>
<g>
</g>
<g>
</g>
<g>
</g>
<g>
</g>
<g>
</g>
<g>
</g>
<g>
</g>
<g>
</g>
<g>
</g>
<g>
</g>
<g>
</g>
<g>
</g>
<g>
</g>
<g>
</g>
<g>
</g>
</svg>
